<?xml version="1.0" encoding="utf-8"?>
<!-- Generator: Adobe Illustrator 27.5.0, SVG Export Plug-In . SVG Version: 6.00 Build 0)  -->
<svg version="1.1" xmlns="http://www.w3.org/2000/svg" xmlns:xlink="http://www.w3.org/1999/xlink" x="0px" y="0px"
	 viewBox="0 0 500 500" style="enable-background:new 0 0 500 500;" xml:space="preserve">
<g id="BACKGROUND">
	<rect style="fill:#FFFFFF;" width="500" height="500"/>
</g>
<g id="OBJECTS">
	<g>
		<g id="beach">
			<defs>
				<path id="SVGID_1_" d="M193.431,49.001c-4.054,1.495-8.068,3.102-12.033,4.821c-15.539,6.738-28.592,17.203-43.796,24.627
					c-9.844,4.807-20.353,8.257-29.818,13.773c-20.184,11.762-33.654,31.638-45.2,51.372
					c-13.296,22.726-28.091,44.184-38.065,68.854c-12.553,31.05-13.881,64.82-6.999,97.384
					c7.898,37.369,24.783,73.323,48.29,103.414c17.338,22.194,37.963,36.923,65.376,44.689c19.205,5.44,43.262,6.901,61.849-0.49
					c16.862-6.704,37.956-4.863,55.673-2.074c38.698,6.093,80.492,16.699,119.349,6.14c35.519-9.652,58.838-34.921,78.847-64.319
					c21.866-32.128,37.907-70.087,39.501-109.304c1.346-33.118-4.153-65.554-13.232-97.334
					c-5.867-20.538-15.003-38.812-24.587-57.749c-9.142-18.063-15.662-36.841-28.495-52.882
					c-23.613-29.516-61.676-36.704-96.921-42.382c-31.602-5.091-64.132-4.816-95.511,1.683
					C216.029,41.633,204.574,44.892,193.431,49.001z"/>
			</defs>
			<clipPath id="SVGID_00000030484089948441925960000007746333764597627014_">
				<use xlink:href="#SVGID_1_"  style="overflow:visible;"/>
			</clipPath>
			<g id="sky" style="clip-path:url(#SVGID_00000030484089948441925960000007746333764597627014_);">
				<g>
					<g>
						<path style="fill:#6587D8;" d="M355.165,112.804c28.217-8.842,55.693-21.321,82.475-33.799
							c18.405-8.575,36.6-17.747,53.825-28.404V7.281H8.535v62.735c58.769,32.756,138.297,63.087,216.755,62.373
							C269.057,131.99,313.379,125.898,355.165,112.804z"/>
						<path style="fill:#718FD8;" d="M437.641,79.005c-26.782,12.478-54.258,24.957-82.475,33.799
							c-41.786,13.094-86.109,19.186-129.876,19.584c-78.457,0.714-157.986-29.617-216.755-62.373v155.772
							c14.528,0.847,29.703-3.744,44.392-3.726c14.545,0.018,28.809,3.766,43.295,4.736c14.827,0.992,28.609-1.707,43.23-3.79
							c23.963-3.413,49.968-8.504,74.233-6.117c11.559,1.137,21.56,6.948,33.349,7.649c14.311,0.851,28.334-1.776,42.486-3.45
							c26.849-3.177,54.478-6.862,80.883,0.465c18.875,5.238,34.989,9.149,54.799,5.941c9.984-1.617,19.583-5.026,29.766-5.294
							c9.506-0.25,18.736,2.437,28.123,3.616c2.806,0.353,5.596,0.623,8.374,0.829V50.601
							C474.241,61.257,456.046,70.43,437.641,79.005z"/>
					</g>
					<path style="fill:#92B0F9;" d="M454.968,222.201c-10.184,0.268-19.782,3.677-29.766,5.294
						c-19.811,3.208-35.925-0.703-54.799-5.941c-26.405-7.328-54.034-3.643-80.883-0.465c-14.152,1.675-28.175,4.302-42.486,3.45
						c-11.789-0.701-21.79-6.512-33.349-7.649c-24.265-2.387-50.27,2.703-74.233,6.117c-14.621,2.083-28.402,4.782-43.23,3.79
						c-14.486-0.969-28.75-4.717-43.295-4.736c-14.69-0.018-29.864,4.573-44.392,3.726v36.342h482.93v-35.483
						c-2.777-0.206-5.567-0.477-8.374-0.829C473.705,224.637,464.474,221.951,454.968,222.201z"/>
				</g>
				<g>
					<path style="fill:#C1D7FF;" d="M416.27,223.233c-7.114-1.735-12.338-5.718-19.954-5.429
						c-8.703,0.331-16.479,5.354-25.021,5.758c-8.453,0.399-14.338-5.613-22.203-7.27c-7.598-1.6-15.096,0.565-22.496,2.159
						c-8.839,1.904-18.257,3.05-26.693-0.871c-2.726-1.267-4.758-2.478-6.351-3.859c-5.427,7.376-0.115,18.71,9.814,18.71h23.881
						c0,0,118.935,0,128.303,0c9.345,0,7.34-10.536-4.394-15.44c-1.84,0.557-3.675,1.173-5.514,1.866
						C436.411,222.331,426.2,225.654,416.27,223.233z"/>
					<path style="fill:#D1E1FF;" d="M414.764,209.189c-2.604-4.039-2.017-9.3-4.472-13.452c-4.841-8.187-21.594-13.812-29.494-8.414
						c-4.144,2.832-6.717,6.984-12.477,5.515c-5.823-1.485-7.942-7.473-11.281-11.672c-7.494-9.423-26.042-5.83-30.935,4.708
						c-3.137,6.758-5.193,12.588-11.229,17.336c-5.396,4.244-12.924,4.041-18.574,7.82c-0.295,0.198-0.605,0.437-0.924,0.712
						c-0.711,0.614-1.313,1.279-1.826,1.976c1.593,1.382,3.625,2.592,6.351,3.859c8.436,3.921,17.854,2.775,26.693,0.871
						c7.401-1.594,14.898-3.759,22.496-2.159c7.865,1.656,13.75,7.669,22.203,7.27c8.542-0.403,16.319-5.427,25.021-5.758
						c7.616-0.29,12.841,3.694,19.954,5.429c9.93,2.422,20.141-0.901,29.371-4.377c1.839-0.692,3.674-1.309,5.514-1.866
						c-0.029-0.012-0.057-0.026-0.086-0.038C439.692,212.245,422.893,221.796,414.764,209.189z"/>
				</g>
				<g>
					<path style="fill:#C1D7FF;" d="M154.989,223.183c-8.34,2.291-16.791,3.527-25.456,3.03c-9.401-0.538-15.365-6.85-24.201-8.519
						c-8.265-1.562-16.737,3.132-24.231,5.835c-10.118,3.65-21.873,4.107-30.205-2.021c-0.658,0.86-1.213,1.784-1.625,2.763
						c-1.867,4.429-0.636,8.159,4.799,8.159c9.37,0,128.303,0,128.303,0h23.881c3.539,0,6.103-1.921,7.327-4.601
						c-9.572-2.303-17.196-10.032-26.773-11.659C176.026,214.338,165.059,220.417,154.989,223.183z"/>
					<path style="fill:#D1E1FF;" d="M214.057,221.553c-1.283-4.885-4.746-9.265-7.923-13.077
						c-4.431-5.316-11.887-10.934-18.606-12.605c-5.004-1.244-11.955-1.86-16.688,0.668c-4.251,2.271-6.894,7.012-11.759,8.284
						c-4.876,1.274-6.064-1.795-9.368-4.46c-4.411-3.559-9.301-1.904-13.181,1.614c-3.88,3.52-6.09,5.406-10.984,1.272
						c-4.129-3.487-6.179-10.908-12.066-11.867c-8.141-1.326-18.947,7.213-22.796,13.472c-2.793,4.541-4.089,12.568-9.822,14.212
						c-5.919,1.697-12.325-4.494-18.585-3.869c-4.29,0.428-8.72,2.83-11.383,6.31c8.332,6.128,20.087,5.671,30.205,2.021
						c7.494-2.703,15.966-7.397,24.231-5.835c8.836,1.67,14.8,7.981,24.201,8.519c8.665,0.496,17.116-0.74,25.456-3.03
						c10.069-2.766,21.037-8.845,31.817-7.013c9.577,1.627,17.2,9.356,26.773,11.659
						C214.426,225.974,214.636,223.759,214.057,221.553z"/>
				</g>
			</g>
			<g id="sea" style="clip-path:url(#SVGID_00000030484089948441925960000007746333764597627014_);">
				<path style="fill:#77E9F4;" d="M8.535,261.352v24.32c12.08-5.984,25.344-12.516,38.398-11.91
					c7.973,0.37,12.992,5.85,20.643,7.374c10.668,2.124,20.725-1.788,30.795-4.691c22.678-6.538,43.447-10.139,64.875,0.856
					c23.922,12.275,49.852,3.203,74.623-1.491c12.876-2.44,26.813-3.962,39.803-1.159c11.509,2.483,21.281,9.507,33.122,11.393
					c14.21,2.264,25.059-1.942,38.475-5.494c11.43-3.026,23.666-3.621,35.448-2.675c10.045,0.807,17.119,6.291,26.255,9.248
					c13.297,4.303,26.378-1.653,38.677-5.908c13.169-4.557,25.834-6.047,39.331-1.808c0.842,0.265,1.662,0.501,2.486,0.741v-18.794
					H8.535z"/>
				<path style="fill:#E9F7E8;" d="M457.378,333.303c-10.224,1.325-20.349,3.422-30.457,5.422
					c-8.659,1.714-17.77,3.628-26.603,2.038c-7.449-1.341-12.572-4.804-18.684-8.997c-6.6-4.528-14.544-5.625-22.67-5.143
					c-6.756,0.401-13.095,2.671-19.564,4.454c-8.284,2.283-16.678,4.19-25.077,6.02c-11.726,2.555-23.66,4.565-35.699,4.387
					c-5.536-0.082-11.162-1.345-16.59-0.884c-5.818,0.493-11.17,0.769-16.88-1.068c-8.436-2.714-15.653-7.932-24.185-10.454
					c-8.459-2.5-17.055-3.573-25.853-3.804c-18.94-0.497-37.824,2.397-56.483,5.295c-9.185,1.426-18.05,3.528-27.054,5.76
					c-8.896,2.205-18.786,3.695-27.111-1.235c-5.297-3.137-8.992-10.349-14.366-11.962c-7.267-2.182-17.003,2.172-23.741,4.656
					c-12.741,4.698-24.85,12.323-37.827,16.674v43.338h482.93v-54.466c-0.325-0.04-0.651-0.083-0.976-0.12
					C479.373,331.966,468.486,331.863,457.378,333.303z"/>
				<path style="fill:#4FD3C2;" d="M78.679,302.396c4.592,1.733,8.47,4.417,11.877,7.94c6.527,6.751,9.813,8.856,19.267,6.671
					c6.576-1.52,12.712-4.203,19.059-6.405c9.989-3.465,19.796-7.548,30.173-9.751c5.991-1.272,13.325-2.586,18.816,0.708
					c4.743,2.845,6.307,5.482,12.22,5.652c7.53,0.217,14.7-1.767,22.124-2.678c14.015-1.721,27.583-1.323,40.005,6.037
					c11.527,6.829,23.071,2.128,35.455-0.557c9.78-2.12,19.491-4.519,29.136-7.185c18.701-5.169,39.961-10.979,59.43-7.038
					c8.41,1.702,14.485,7.305,19.977,13.501c5.149,5.809,7.864,7.113,15.343,6.377c8.203-0.807,17.767-3.418,26.432-4.956
					c10.044-1.783,20.242-3.42,30.438-3.96c7.69-0.408,15.4,0.088,23.034,1.095v-27.7c-0.823-0.24-1.643-0.477-2.486-0.741
					c-13.497-4.238-26.162-2.748-39.331,1.808c-12.299,4.255-25.38,10.211-38.677,5.908c-9.136-2.957-16.21-8.441-26.255-9.248
					c-11.782-0.946-24.018-0.351-35.448,2.675c-13.416,3.552-24.265,7.758-38.475,5.494c-11.841-1.886-21.613-8.91-33.122-11.393
					c-12.991-2.803-26.928-1.281-39.803,1.159c-24.771,4.694-50.701,13.766-74.623,1.491c-21.428-10.995-42.197-7.393-64.875-0.856
					c-10.07,2.903-20.127,6.815-30.795,4.691c-7.651-1.523-12.67-7.004-20.643-7.374c-13.054-0.605-26.318,5.926-38.398,11.91
					v35.367c12.237-6.789,25.291-12.608,38.12-16.776C56.891,300.936,68.254,298.461,78.679,302.396z"/>
				<path style="fill:#77E9F4;" d="M468.431,306.75c-10.197,0.541-20.394,2.177-30.438,3.96c-8.664,1.538-18.229,4.149-26.432,4.956
					c-7.479,0.736-10.194-0.568-15.343-6.377c-5.492-6.195-11.567-11.798-19.977-13.501c-19.469-3.941-40.73,1.868-59.43,7.038
					c-9.645,2.666-19.356,5.065-29.136,7.185c-12.384,2.685-23.928,7.386-35.455,0.557c-12.422-7.359-25.989-7.757-40.005-6.037
					c-7.425,0.912-14.595,2.895-22.124,2.678c-5.913-0.17-7.477-2.807-12.22-5.652c-5.492-3.293-12.826-1.979-18.816-0.708
					c-10.378,2.203-20.184,6.286-30.173,9.751c-6.347,2.202-12.484,4.885-19.059,6.405c-9.454,2.186-12.74,0.08-19.267-6.671
					c-3.407-3.523-7.285-6.207-11.877-7.94c-10.426-3.935-21.788-1.459-32.024,1.867c-12.829,4.169-25.883,9.987-38.12,16.776
					v23.425c12.977-4.351,25.086-11.976,37.827-16.674c6.739-2.485,16.474-6.838,23.741-4.656
					c5.375,1.613,9.069,8.825,14.366,11.962c8.325,4.93,18.215,3.44,27.111,1.235c9.004-2.232,17.869-4.333,27.054-5.76
					c18.659-2.898,37.542-5.792,56.483-5.295c8.798,0.231,17.394,1.304,25.853,3.804c8.532,2.522,15.749,7.74,24.185,10.454
					c5.71,1.837,11.062,1.561,16.88,1.068c5.428-0.46,11.054,0.803,16.59,0.884c12.039,0.178,23.974-1.832,35.699-4.387
					c8.399-1.83,16.792-3.737,25.077-6.02c6.469-1.783,12.809-4.053,19.564-4.454c8.126-0.482,16.07,0.616,22.67,5.143
					c6.112,4.193,11.235,7.656,18.684,8.997c8.833,1.59,17.943-0.324,26.603-2.038c10.108-2.001,20.233-4.097,30.457-5.422
					c11.108-1.44,21.995-1.337,33.111-0.086c0.325,0.036,0.65,0.08,0.976,0.12v-25.491
					C483.831,306.838,476.121,306.342,468.431,306.75z"/>
				<path style="fill:#E9F7E8;" d="M417.809,321.488c-3.735,4.048-8.878,5.378-11.487,2.971c-2.609-2.407-1.696-7.64,2.04-11.689
					c3.735-4.048,8.878-5.379,11.487-2.971C422.458,312.206,421.545,317.439,417.809,321.488z"/>
				<path style="fill:#E9F7E8;" d="M363.33,322.205c-3.735,4.048-8.878,5.379-11.487,2.971c-2.609-2.407-1.696-7.64,2.04-11.689
					c3.735-4.048,8.878-5.379,11.487-2.971C367.978,312.923,367.065,318.156,363.33,322.205z"/>
				<path style="fill:#F7FDF7;" d="M394.233,303.362c-2.751,2.982-6.54,3.963-8.461,2.189c-1.922-1.773-1.249-5.628,1.502-8.611
					c2.751-2.982,6.54-3.963,8.461-2.189C397.657,296.525,396.984,300.38,394.233,303.362z"/>
				<path style="fill:#F7FDF7;" d="M443.355,337.492c-3.405,3.69-8.093,4.902-10.472,2.707c-2.378-2.194-1.546-6.964,1.859-10.654
					c3.405-3.69,8.093-4.902,10.472-2.707C447.593,329.032,446.76,333.802,443.355,337.492z"/>
				<path style="fill:#4FD3C2;" d="M415.667,345.966c-2.124,2.301-5.285,2.839-7.06,1.202c-1.775-1.638-1.492-4.831,0.632-7.132
					c2.124-2.301,5.285-2.839,7.06-1.202C418.074,340.472,417.791,343.665,415.667,345.966z"/>
				<path style="fill:#4FD3C2;" d="M393.588,346.748c-2.784,3.016-6.926,3.721-9.252,1.575c-2.326-2.146-1.955-6.331,0.829-9.347
					c2.784-3.016,6.926-3.721,9.252-1.575C396.743,339.547,396.372,343.732,393.588,346.748z"/>
				<path style="fill:#77E9F4;" d="M448.67,296.273c-2.784,3.016-6.926,3.721-9.252,1.575c-2.326-2.146-1.955-6.331,0.829-9.347
					c2.784-3.016,6.926-3.721,9.252-1.575C451.825,289.072,451.454,293.257,448.67,296.273z"/>
				<path style="fill:#E9F7E8;" d="M77.246,320.178c3.735,4.048,8.878,5.379,11.487,2.971c2.609-2.407,1.696-7.64-2.04-11.689
					c-3.735-4.048-8.878-5.379-11.487-2.971C72.598,310.896,73.511,316.129,77.246,320.178z"/>
				<path style="fill:#E9F7E8;" d="M125.613,317.271c3.735,4.048,8.878,5.378,11.487,2.971c2.609-2.407,1.696-7.64-2.04-11.689
					c-3.735-4.048-8.878-5.379-11.487-2.971C120.965,307.99,121.878,313.223,125.613,317.271z"/>
				<path style="fill:#F7FDF7;" d="M101.478,297.031c2.751,2.982,6.54,3.963,8.461,2.19c1.922-1.773,1.249-5.628-1.502-8.611
					c-2.751-2.982-6.54-3.963-8.461-2.189C98.053,290.194,98.726,294.049,101.478,297.031z"/>
				<path style="fill:#77E9F4;" d="M54.961,346.587c3.405,3.69,8.094,4.902,10.472,2.707c2.378-2.194,1.546-6.964-1.859-10.654
					c-3.405-3.69-8.093-4.902-10.472-2.707C50.723,338.128,51.556,342.898,54.961,346.587z"/>
				<path style="fill:#4FD3C2;" d="M84.41,349.896c2.124,2.301,5.285,2.839,7.06,1.202c1.775-1.638,1.492-4.831-0.632-7.132
					c-2.124-2.301-5.285-2.839-7.06-1.202C82.002,344.401,82.285,347.594,84.41,349.896z"/>
				<path style="fill:#4FD3C2;" d="M104.524,339.797c2.784,3.016,6.926,3.721,9.252,1.575c2.326-2.146,1.955-6.331-0.829-9.347
					c-2.784-3.016-6.926-3.721-9.252-1.575C101.369,332.596,101.74,336.781,104.524,339.797z"/>
				<path style="fill:#77E9F4;" d="M48.569,296.273c2.784,3.016,6.926,3.721,9.252,1.575c2.326-2.146,1.955-6.331-0.829-9.347
					c-2.784-3.016-6.926-3.721-9.252-1.575C45.414,289.072,45.785,293.257,48.569,296.273z"/>
			</g>
			<g id="sand" style="clip-path:url(#SVGID_00000030484089948441925960000007746333764597627014_);">
				<g>
					<path style="fill:#E9C87E;" d="M450.729,403.845c-11.986-0.758-23.166-4.074-34.481-7.896
						c-8.547-2.887-18.253-5.503-25.664-10.871c-5.398-3.911-9.734-9.143-16.026-11.754c-13.391-5.558-26.537,0.261-39.969,0.676
						c-13.711,0.423-28.551-8.268-41.49-11.949c-12.163-3.461-24.612-2.883-37.135-2.595c-19.095,0.44-39.83,1.667-58.044,7.761
						c-13.066,4.371-26.964,9.471-40.622,11.334c-22.085,3.012-43.368-6.897-64.975,1.868
						c-11.705,4.749-21.771,12.518-33.718,16.908c-12.904,4.742-26.592,8.591-39.938,11.943c-3.35,0.841-6.731,1.555-10.132,2.119
						v57.078h482.93V398.19C478.028,401.457,464.448,404.712,450.729,403.845z"/>
					<path style="fill:#FFD574;" d="M488.204,382.253c-9.983-2.355-19.866-3.304-29.693-6.359
						c-10.033-3.119-19.174-7.928-29.707-10.016c-11.512-2.283-22.856-0.534-34.496-0.806c-11.025-0.258-16.681-4.824-26.364-7.837
						c-9.044-2.815-18.326-1.48-27.713-1.452c-7.875,0.023-15.773-0.801-23.262-2.822c-5.588-1.508-9.915-4.506-15.682-5.297
						c-16.419-2.253-34.756-1.21-51.372-1.21c-24.79,0-49.7,0.651-74.386,2.573c-9.735,0.758-17.544,4.201-27.651,4.373
						c-11.405,0.193-22.863-0.606-33.873,2.401c-6.695,1.828-13.493,6.163-20.476,6.686c-6.654,0.499-12.059-1.552-18.881-0.114
						c-17.402,3.668-29.107,14.667-46.782,17.673c-6.017,1.023-12.878,2.925-19.332,5.65v25.693
						c3.401-0.565,6.782-1.278,10.132-2.119c13.347-3.352,27.034-7.2,39.938-11.943c11.947-4.391,22.012-12.159,33.718-16.908
						c21.607-8.766,42.891,1.143,64.975-1.868c13.657-1.862,27.556-6.962,40.622-11.334c18.214-6.094,38.949-7.321,58.044-7.761
						c12.523-0.288,24.972-0.866,37.135,2.595c12.939,3.681,27.779,12.372,41.49,11.949c13.432-0.414,26.579-6.233,39.969-0.676
						c6.292,2.611,10.628,7.843,16.026,11.754c7.411,5.369,17.118,7.985,25.664,10.871c11.315,3.822,22.495,7.138,34.481,7.896
						c13.719,0.867,27.3-2.388,40.737-5.655v-14.922C490.505,382.887,489.436,382.544,488.204,382.253z"/>
				</g>
				<ellipse style="fill:#A08150;" cx="250.004" cy="402.968" rx="102.59" ry="29.206"/>
				<path style="fill:#D25A3C;" d="M106.234,387.066c-0.469-0.188-0.955-0.335-1.446-0.44c-2.031-0.434-4.147-0.222-6.184,0.184
					c-5.346,1.066-20.246,5.903-15.876,13.85c3.152,5.734,13.35,2.292,17.861,0.587c4.21-1.59,12.623-5.189,9.202-11.227
					C109.015,388.65,107.707,387.656,106.234,387.066z"/>
				<path style="fill:#DA9042;" d="M211.899,444.334c-0.403-0.305-0.833-0.574-1.279-0.805c-1.845-0.954-3.942-1.307-6.014-1.452
					c-5.438-0.38-21.086,0.361-18.965,9.178c1.531,6.362,12.275,5.728,17.076,5.272c4.48-0.425,13.544-1.679,11.835-8.406
					C214.165,446.595,213.164,445.291,211.899,444.334z"/>
				<path style="fill:#DA9042;" d="M112.759,424.051c-0.46-0.21-0.938-0.38-1.423-0.508c-2.008-0.531-4.132-0.421-6.185-0.113
					c-5.391,0.809-20.506,4.926-16.522,13.073c2.874,5.878,13.225,2.929,17.813,1.443c4.281-1.387,12.857-4.577,9.73-10.773
					C115.461,425.767,114.202,424.711,112.759,424.051z"/>
				<path style="fill:#D25A3C;" d="M314.346,443.964c-0.623-0.471-1.288-0.889-1.978-1.245c-2.854-1.475-6.097-2.022-9.302-2.246
					c-8.411-0.588-32.615,0.558-29.334,14.197c2.367,9.84,18.986,8.86,26.412,8.155c6.93-0.657,20.95-2.598,18.306-13.003
					C317.85,447.461,316.303,445.444,314.346,443.964z"/>
				<path style="fill:#DA9042;" d="M130.523,376.007c-0.014-0.913-0.461-1.73-1.347-2.386c-2.4-1.776-6.003,0.019-7.533,2.164
					c-1.52,2.131-0.971,5.326,1.743,6.055c2.451,0.658,4.724-1.054,6.089-3.113c0.277-0.397,0.53-0.804,0.719-1.225
					c0.086-0.191,0.155-0.38,0.208-0.565c0.005-0.012,0.011-0.025,0.015-0.037C130.518,376.629,130.548,376.322,130.523,376.007z"/>
				<path style="fill:#DA9042;" d="M378.347,427.643c0.484-0.774,0.553-1.703,0.166-2.735c-1.049-2.795-5.049-3.247-7.5-2.277
					c-2.434,0.963-3.71,3.943-1.827,6.03c1.7,1.884,4.539,1.683,6.803,0.696c0.448-0.182,0.882-0.387,1.269-0.637
					c0.176-0.114,0.336-0.234,0.482-0.361c0.011-0.008,0.022-0.015,0.033-0.023C378.005,428.161,378.197,427.92,378.347,427.643z"/>
				<path style="fill:#DA9042;" d="M399.648,406.141c0.484-0.774,0.553-1.703,0.166-2.735c-1.049-2.795-5.049-3.247-7.5-2.277
					c-2.434,0.963-3.71,3.943-1.827,6.03c1.7,1.885,4.538,1.683,6.803,0.696c0.448-0.182,0.882-0.387,1.269-0.637
					c0.176-0.114,0.336-0.234,0.482-0.361c0.011-0.008,0.022-0.015,0.033-0.023C399.306,406.66,399.498,406.418,399.648,406.141z"/>
				<path style="fill:#DA9042;" d="M347.473,440.201c1.208-0.869,1.884-2.225,1.936-4.02c0.142-4.86-5.608-8.007-9.901-8.057
					c-4.262-0.049-8.023,3.655-6.472,7.962c1.4,3.889,5.803,5.335,9.826,5.243c0.788,0.002,1.568-0.04,2.306-0.178
					c0.335-0.063,0.651-0.146,0.949-0.248c0.021-0.005,0.043-0.009,0.063-0.014C346.637,440.772,347.076,440.527,347.473,440.201z"
					/>
				<path style="fill:#DA9042;" d="M429.756,389.733c1.208-0.869,1.884-2.225,1.936-4.02c0.142-4.86-5.608-8.007-9.901-8.057
					c-4.262-0.049-8.023,3.656-6.472,7.962c1.401,3.889,5.803,5.336,9.826,5.243c0.788,0.002,1.568-0.039,2.306-0.178
					c0.335-0.063,0.651-0.146,0.949-0.248c0.021-0.005,0.043-0.009,0.064-0.014C428.92,390.303,429.358,390.058,429.756,389.733z"/>
				<path style="fill:#DA9042;" d="M156.796,434.658c-1.318-1.9-3.369-2.312-5.452-2.082c-4.19-0.113-8.372,0.341-12.228,2.182
					c-2.649,1.265-6.769,3.966-5.986,7.474c1.13,5.065,10.04,4.57,13.677,3.327C150.418,444.324,160.521,440.027,156.796,434.658z"
					/>
				<path style="fill:#D25A3C;" d="M405.168,389.802c0.224-2.302-1.073-3.943-2.81-5.115c-3.122-2.797-6.605-5.156-10.736-6.247
					c-2.839-0.75-7.727-1.355-9.4,1.826c-2.415,4.594,4.7,9.98,8.276,11.385C394.051,393.047,404.535,396.307,405.168,389.802z"/>
				<path style="fill:#DA9042;" d="M438.398,417.146c0.224-2.302-1.073-3.943-2.81-5.115c-3.122-2.797-6.605-5.156-10.736-6.247
					c-2.839-0.75-7.727-1.355-9.4,1.826c-2.415,4.594,4.7,9.98,8.276,11.385C427.281,420.391,437.766,423.651,438.398,417.146z"/>
			</g>
			<g id="leaves" style="clip-path:url(#SVGID_00000030484089948441925960000007746333764597627014_);">
				<g>
					<path style="fill:#385635;" d="M445.679,62.545c-13.295,16.947-19.264,38.703-23.129,59.505
						c-1.998,10.753-3.072,21.422-2.435,32.33c0.973-3.57,2.487-7.876,4.004-11.93c3.939-32.769,16.032-64.022,33.847-91.934
						C453.332,52.92,449.274,58.274,445.679,62.545z"/>
					<path style="fill:#4C7B49;" d="M463.813,49.299c-2.048-0.249-3.992,0.255-5.847,1.217
						c-17.815,27.912-29.907,59.165-33.847,91.934c1.347-3.601,2.697-7.005,3.672-9.51c3.7-9.507,7.66-19.043,12.384-28.092
						c6.721-12.874,16.19-24.475,23.882-36.825C466.772,63.663,473.557,50.485,463.813,49.299z"/>
				</g>
				<g>
					<path style="fill:#B2C97A;" d="M392.642,13.129c-0.198-0.112-0.398-0.223-0.62-0.327c-6.528-3.073-14.716,2.793-21.372,6.893
						c-17.937,11.925-30.426,30.713-40.617,49.255c-5.268,9.585-9.633,19.379-12.447,29.937c0.798-1.204,1.712-2.492,2.688-3.812
						C335.885,61.705,361.951,34.322,392.642,13.129z"/>
					<path style="fill:#4C7B49;" d="M392.642,13.129c-30.691,21.193-56.757,48.576-72.368,81.946
						c3.744-5.066,8.436-10.644,11.322-14.141c6.494-7.868,13.244-15.682,20.567-22.794c10.418-10.118,23.047-18.166,34.222-27.482
						C390.231,27.452,400.371,17.5,392.642,13.129z"/>
				</g>
				<path style="fill:#B2C97A;" d="M102.838,10.935c0.211-0.145,0.426-0.29,0.665-0.429c7.033-4.101,16.818,1.682,24.707,5.632
					c21.344,11.628,37.242,31.511,50.534,51.344c6.871,10.252,12.747,20.829,16.956,32.419c-1.016-1.275-2.172-2.632-3.399-4.019
					C171.447,59.917,139.435,31.718,102.838,10.935z"/>
				<path style="fill:#4C7B49;" d="M102.838,10.935c36.597,20.783,68.609,48.983,89.462,84.947
					c-4.71-5.324-10.536-11.129-14.127-14.774c-8.079-8.201-16.44-16.316-25.375-23.585c-12.713-10.342-27.705-18.138-41.189-27.503
					C106.967,26.796,94.583,16.614,102.838,10.935z"/>
				<g>
					<path style="fill:#B2C97A;" d="M455.371,55.992c-5.691,0.014-12.036,4.508-17.389,7.853
						c-17.863,12.036-30.235,30.901-40.312,49.505c-5.209,9.617-9.512,19.438-12.262,30.013c2.431-3.72,5.929-8.21,9.085-12.128
						C408.588,101.676,429.511,75.633,455.371,55.992z"/>
					<path style="fill:#97A965;" d="M459.311,56.819c-1.261-0.584-2.582-0.83-3.94-0.827c-25.86,19.641-46.783,45.685-60.879,75.243
						c1.806-2.242,3.5-4.298,4.815-5.911c6.445-7.908,13.146-15.763,20.425-22.921c10.355-10.183,22.934-18.308,34.051-27.693
						C457.708,71.397,468.218,60.945,459.311,56.819z"/>
				</g>
				<g>
					<path style="fill:#B2C97A;" d="M454.555,73.632c-4.871,2.944-7.992,10.065-10.857,15.69
						c-9.108,19.519-9.991,42.062-9.041,63.199c0.491,10.926,1.863,21.56,4.956,32.041c0.166-4.441,0.851-10.092,1.537-15.075
						C437.999,136.89,442.512,103.789,454.555,73.632z"/>
					<path style="fill:#97A965;" d="M458.357,72.31c-1.382,0.149-2.641,0.619-3.803,1.321
						c-12.042,30.158-16.556,63.259-13.406,95.854c0.392-2.852,0.785-5.487,1.081-7.547c1.449-10.098,3.145-20.283,5.695-30.168
						c3.628-14.062,10.222-27.507,14.914-41.279C464.495,85.63,468.118,71.257,458.357,72.31z"/>
				</g>
				<g>
					<path style="fill:#4C7B49;" d="M316.007,130.115c-0.539,0.785-1.092,1.556-1.618,2.353c5.08-2.865,20.085-13.583,26.977-17.886
						c12.3-7.679,24.92-15.17,37.996-21.457c18.604-8.944,39.254-14.1,58.517-21.622c6.694-2.614,25.13-11.606,16.075-21.082
						C401.527,63.891,352.103,88.907,316.007,130.115z"/>
					<path style="fill:#B2C97A;" d="M453.955,50.422c-0.143-0.149-0.271-0.298-0.428-0.448c-7.414-7.085-21.096-2.868-31.917-0.34
						c-29.554,7.991-54.856,27.688-76.95,48.09c-10.718,9.897-20.427,20.421-28.653,32.392
						C352.103,88.907,401.527,63.891,453.955,50.422z"/>
				</g>
				<g>
					<path style="fill:#385635;" d="M110.973,198.118c-0.151,0.94-0.284,1.879-0.453,2.819c-1.699-5.579-5.162-23.692-7.18-31.561
						c-3.602-14.046-7.566-28.176-12.69-41.75c-7.291-19.312-18.677-37.294-27.427-56.032c-3.041-6.512-10.177-25.741,2.915-26.351
						C94.785,91.173,113.289,143.386,110.973,198.118z"/>
					<path style="fill:#97A965;" d="M66.138,45.244c0.206-0.01,0.402-0.029,0.619-0.029c10.255-0.01,17.246,12.483,23.333,21.78
						c15.874,26.179,20.591,57.895,22.501,87.907c0.927,14.56,0.69,28.876-1.618,43.216
						C113.289,143.386,94.785,91.173,66.138,45.244z"/>
				</g>
				<g>
					<path style="fill:#4C7B49;" d="M164.838,147.419c0.151,0.94,0.321,1.873,0.455,2.819c-3.364-4.764-12.337-20.874-16.724-27.712
						c-7.829-12.205-16.027-24.377-25.154-35.657c-12.984-16.047-29.439-29.547-43.628-44.591
						c-4.931-5.228-17.743-21.246-5.504-25.934C115.899,50.96,149.857,94.726,164.838,147.419z"/>
					<path style="fill:#B2C97A;" d="M74.283,16.344c0.193-0.074,0.373-0.153,0.579-0.222c9.733-3.229,20.293,6.438,28.99,13.355
						c23.288,19.873,37.723,48.505,48.957,76.401c5.45,13.533,9.719,27.2,12.029,41.539C149.857,94.726,115.899,50.96,74.283,16.344
						z"/>
				</g>
				<g>
					<path style="fill:#4C7B49;" d="M86.556,178.994c-0.129,0.943-0.239,1.885-0.386,2.829c-1.83-5.537-5.721-23.563-7.925-31.383
						c-3.934-13.957-8.23-27.989-13.675-41.438c-7.746-19.134-19.554-36.841-28.745-55.367c-3.194-6.438-10.784-25.493,2.29-26.412
						C67.841,72.461,87.576,124.222,86.556,178.994z"/>
					<path style="fill:#B2C97A;" d="M38.115,27.224c0.206-0.015,0.402-0.038,0.618-0.044c10.252-0.253,17.537,12.071,23.842,21.222
						c16.489,25.796,21.955,57.391,24.575,87.35c1.271,14.534,1.374,28.852-0.594,43.242
						C87.576,124.222,67.841,72.461,38.115,27.224z"/>
				</g>
			</g>
		</g>
		<g id="guy">
			<path style="fill:#9BA992;" d="M357.212,416.258c-1.161,2.903-2.657,5.156-4.625,6.964c5.692-1.313,11.141-4.599,9.987-13.011
				c-0.362-2.64-0.958-5.158-1.728-7.505c-1.036,0.913-2.114,1.786-3.225,2.629C358.377,408.906,358.297,412.641,357.212,416.258z"
				/>
			<path style="fill:#BACCB3;" d="M345.595,386.055c-1.345,0.115-3.134,0.492-5.17,1.013c1.36,0.38,2.704,0.871,4.021,1.529
				c7.022,3.511,11.705,9.807,13.174,16.738c1.111-0.843,2.189-1.717,3.225-2.629C357.504,392.539,350.866,385.607,345.595,386.055z
				"/>
			<path style="fill:#723621;" d="M279.865,404.31c0.535-5.018,5.939-6.114,9.408-6.296c1.038-0.054,1.99-0.479,2.717-1.165
				c6.223,1.607,21.275,5.026,34.782,4.449c0,0,1.05,10.275,2.925,12.45c1.294,1.501-19.482,3.823-32.486,5.118
				c-2.716-0.363-5.379-0.721-7.934-1.064c-0.685-0.092-1.349-0.189-1.999-0.29c-0.126-0.267-0.239-0.525-0.329-0.759
				c-0.335-0.873-0.899-1.637-1.676-2.157C283.19,413.202,279.279,409.813,279.865,404.31z"/>
			<path style="fill:#CC7436;" d="M297.842,398.236c1.011,0.22,2.094,0.443,3.228,0.665c-0.081,6.697,0.631,13.006,2.539,19.307
				c-1.356,0.145-2.684,0.283-3.962,0.413C297.451,412.188,297.252,405.017,297.842,398.236z"/>
			<path style="fill:#CC7436;" d="M316.855,401.095c1.094,0.081,2.193,0.141,3.293,0.186c-0.034,5.061,0.394,9.904,1.456,14.695
				c-1.236,0.19-2.565,0.381-3.964,0.57C316.563,411.522,316.469,406.215,316.855,401.095z"/>
			<path style="fill:#CC7436;" d="M307.346,399.997c1.076,0.165,2.176,0.319,3.296,0.462c-0.021,5.773,0.559,11.265,2.008,16.724
				c-1.313,0.159-2.646,0.315-3.982,0.468C307.088,411.995,306.9,405.871,307.346,399.997z"/>
			<path style="fill:#402115;" d="M300.654,418.518c-1.19,0.123-2.345,0.24-3.442,0.349c19.147,2.563,40.891,5.406,45.484,5.285
				c2.111-0.056,6.056-0.046,9.89-0.93c1.968-1.809,3.464-4.061,4.625-6.964c1.085-3.617,1.165-7.352,0.408-10.922
				c-1.742,1.322-3.557,2.574-5.489,3.711C336.568,417.606,318.161,421.035,300.654,418.518z"/>
			<path style="fill:#4E2718;" d="M344.445,388.598c-1.317-0.658-2.661-1.149-4.021-1.529c-7.785,1.992-19.25,6.107-23.955,5.888
				c-5.935-0.276-19.276-0.291-22.719,0.889c-0.283,0.561-0.546,1.104-0.765,1.599c-0.24,0.542-0.582,1.015-0.996,1.405
				c6.223,1.607,21.275,5.026,34.782,4.449c0,0,1.05,10.275,2.925,12.45c1.185,1.374-16.131,3.436-29.044,4.769
				c17.507,2.518,35.914-0.912,51.476-9.471c1.932-1.137,3.747-2.389,5.489-3.711C356.15,398.405,351.467,392.109,344.445,388.598z"
				/>
			<path style="fill:#EBA07E;" d="M263.88,408.002l6.488-23.742c0,0,18.385,8.962,23.384,9.585
				c-0.283,0.562-0.546,1.104-0.765,1.599c-0.66,1.493-2.083,2.485-3.713,2.57c-3.469,0.181-8.873,1.277-9.408,6.296
				c-0.587,5.503,3.325,8.891,5.409,10.286c0.777,0.52,1.34,1.284,1.676,2.157c0.09,0.234,0.203,0.492,0.329,0.759
				C268.397,414.581,263.88,408.002,263.88,408.002z"/>
			<path style="fill:#CDD7C8;" d="M197.017,228.608c0.146-3.795,0.23-7.169,0.23-9.91c0-22.008-8.798-23.141-8.798-23.141
				c-4.001,7.05-52.615,37.78-59.987,74.934l24.87,0.718C164.77,254.182,179.87,239.979,197.017,228.608z"/>
			<path style="fill:#A5B49D;" d="M153.334,271.208l39.757,1.147l0.417,10.615c1.271-16.24,2.912-38.863,3.509-54.362
				C179.87,239.979,164.77,254.182,153.334,271.208z"/>
			<g>
				<path style="fill:#C1CEBF;" d="M293.803,243.518c1.167,6.717-0.256,11.473-3.903,17.127c-3.69,5.721-6.989,10.171-7.542,17.39
					c-0.464,6.068,2.326,9.67,5.057,14.766c3.507,6.543,5.054,13.275,5.36,20.106c4.291,0.43,8.461,0.92,12.482,1.471l1.237-31.412
					c-1.585-20.213-3.745-50.331-3.745-64.268c0-4.379,0.352-7.92,0.91-10.801c-4.692,4.851-8.133,13.424-9.672,17.836
					C291.892,231.739,292.751,237.465,293.803,243.518z"/>
				<path style="fill:#C1CEBF;" d="M209.49,290.992c-1.417-3.716-3.179-7.793-3.34-11.824c-0.137-3.433,0.848-7.459,2.225-10.591
					c1.208-2.746,3.369-5.265,2.504-8.454c-1.411-5.197-7.207-7.441-9.308-12.237c-2.297-5.244-0.022-12.144,0.788-17.563
					c1.17-7.822-0.184-13.909-5.476-18.797c0.231,2.104,0.365,4.48,0.365,7.174c0,13.936-2.16,44.054-3.734,64.268l1.229,31.411
					c5.147-0.705,10.553-1.302,16.134-1.806C212.363,305.507,212.275,298.295,209.49,290.992z"/>
				<path style="fill:#E4F6E4;" d="M307.421,198.527c2.105-2.7,4.127-2.966,4.127-2.966c-4-7.053-47.437-20.958-47.437-20.958
					l-14.107,1.553l-14.107-1.553c0,0-43.448,13.905-47.448,20.958c0,0,2.761,0.363,5.19,4.548
					C230.504,184.415,270.299,186.088,307.421,198.527z"/>
				<path style="fill:#DCEBDB;" d="M303.659,207.898c0.902-4.657,2.35-7.561,3.762-9.372
					c-37.122-12.439-76.917-14.112-113.782,1.582c1.375,2.37,2.644,5.961,3.244,11.417c5.292,4.888,6.646,10.975,5.476,18.797
					c-0.811,5.419-3.085,12.32-0.788,17.563c2.101,4.796,7.897,7.04,9.308,12.237c0.866,3.189-1.296,5.708-2.504,8.454
					c-1.377,3.132-2.362,7.158-2.225,10.591c0.161,4.031,1.923,8.108,3.34,11.824c2.784,7.303,2.873,14.515,1.386,21.58
					c12.228-1.106,25.384-1.721,39.122-1.721c15.111,0,29.541,0.731,42.777,2.056c-0.306-6.831-1.853-13.563-5.36-20.106
					c-2.731-5.096-5.521-8.699-5.057-14.766c0.552-7.219,3.851-11.669,7.542-17.39c3.647-5.654,5.07-10.41,3.903-17.127
					c-1.052-6.053-1.911-11.779,0.184-17.784C295.527,221.322,298.967,212.75,303.659,207.898z"/>
			</g>
			<path style="fill:#CDD7C8;" d="M234.142,178.602c-1.852,5.961-1.16,12.827,2.081,18.404c2.722,4.685,8.458,8.665,13.796,8.602
				c12.471-0.147,14.234-10.032,15.003-14.341c0.538-3.016,0.202-7.381-1.126-10.189c-1.5-3.17-5.831-2.493-8.809-2.433
				c-5.238,0.106-10.507,0.254-15.747,0.145C237.062,178.742,235.265,178.495,234.142,178.602z"/>
			<path style="fill:#4E2718;" d="M305.258,314.379c-4.008-0.549-8.162-1.038-12.438-1.466c0.034,4.058-0.231,8.023-0.729,11.928
				c7.927,0,12.755,0,12.755,0L305.258,314.379z"/>
			<path style="fill:#4E2718;" d="M210.73,312.585c-5.529,0.502-10.886,1.095-15.988,1.793l0.409,10.462c0,0,6.107,0,16.412,0
				C210.752,320.774,210.389,316.649,210.73,312.585z"/>
			<path style="fill:#723621;" d="M249.998,310.852c-13.793,0-26.999,0.62-39.268,1.734c-0.342,4.063,0.022,8.189,0.833,12.255
				c9.644,0,22.963,0,38.435,0c16.696,0,31.937,0,42.092,0c0.498-3.905,0.763-7.87,0.729-11.928
				C279.572,311.584,265.126,310.852,249.998,310.852z"/>
			<path style="fill:#39556B;" d="M316.854,346.241c23.088-9.512,43.367-18.935,44.846-23.222
				c-4.097-2.888-37.561-1.561-66.59-1.569c-20.177-0.006-38.206-2.443-45.112-2.443c-7.143,0-28.595,1.349-51.319,2.252
				c-18.626,0.74-38.005,1.354-50.438,1.724c-3.206,0.095-4.055,4.47-1.12,5.764l40.439,17.827
				C229.325,336.202,274.301,336.57,316.854,346.241z"/>
			<path style="fill:#2E404E;" d="M316.854,346.241c-42.552-9.671-87.529-10.039-129.294,0.333l59.642,26.293
				C247.202,372.866,284.746,359.468,316.854,346.241z"/>
			<g>
				<g>
					<path style="fill:#2E404E;" d="M208.193,386.001c-6.242-2.671-13.678-0.542-20.261-0.621
						c-6.868-0.083-10.827-2.246-15.13-7.603c-3.702-4.608-6.328-11.967-11.999-14.584c-5.648-2.606-12.73-1.703-18.757-2.266
						c-5.927-0.554-10.546-2.526-14.226-5.499c4.144,6.853,11.455,14.387,23.214,22.237c15.426,10.3,46.063,19.691,71.404,26.962
						c-0.79-1.169-1.564-2.36-2.322-3.574C216.658,395.515,214.533,388.714,208.193,386.001z"/>
					<path style="fill:#39556B;" d="M267.211,391.931c-5.499-1.586-8.274-5.044-10.932-9.842c-2.318-4.184-3.991-9.059-8.072-11.927
						c-3.179-2.234-7.067-2.851-10.844-2.944c-9.275-0.227-20.97,3.733-27.517-4.808c-2.219-2.895-3.215-6.302-5.912-8.9
						c-3.864-3.722-8.525-5.147-13.738-5.596c-9.666-0.831-21.239,3.086-28.788-4.764c-3.764-3.915-6.299-8.453-11.274-11.089
						c-3.111-1.648-6.796-2.657-10.179-3.533c-3.676-0.952-7.11-1.502-10.705-1.418c-6.006,5.729-8.934,15.903-1.428,28.316
						c3.679,2.973,8.298,4.946,14.226,5.499c6.027,0.563,13.108-0.34,18.757,2.266c5.671,2.617,8.297,9.975,11.999,14.584
						c4.303,5.356,8.262,7.52,15.13,7.603c6.583,0.08,14.019-2.05,20.261,0.621c6.34,2.713,8.464,9.514,11.923,15.052
						c0.758,1.214,1.532,2.405,2.322,3.574c5.193,1.49,10.169,2.893,14.74,4.194c5.599-2.43,11.391-1.587,17.385-2.55
						c3.877-0.623,7.764-1.173,11.655-1.697c1.543-4.26,3.48-8.196,5.459-11.647C270.175,392.673,268.684,392.356,267.211,391.931z"
						/>
				</g>
				<path style="fill:#3E647F;" d="M245.619,360.963c-10.273-5.583-28.2-14.223-40.433-20.906
					c-30.211-16.503-62.436-19.401-69.028-17.17c-2.464,0.834-4.862,2.273-6.908,4.224c3.595-0.083,7.028,0.467,10.705,1.418
					c3.383,0.876,7.068,1.885,10.179,3.533c4.975,2.636,7.51,7.174,11.274,11.089c7.549,7.851,19.122,3.933,28.788,4.764
					c5.214,0.448,9.875,1.874,13.738,5.596c2.697,2.598,3.693,6.005,5.912,8.9c6.546,8.541,18.242,4.581,27.517,4.808
					c3.777,0.092,7.664,0.71,10.844,2.944c4.081,2.868,5.754,7.743,8.072,11.927c2.658,4.797,5.434,8.256,10.932,9.842
					c1.473,0.425,2.964,0.741,4.466,0.995c4.904-8.555,10.056-14.113,10.056-14.113S266.072,372.079,245.619,360.963z"/>
			</g>
			<path style="fill:#4C7B49;" d="M262.072,255.879c-0.702-8.606-1.41-17.187-2.077-25.094c-3.124-37.068-8.538-38.734-8.538-38.734
				h-2.915c0,0-5.414,1.666-8.538,38.734c-1.278,15.171-2.711,32.819-3.958,48.374C245.188,271.866,254.074,264.316,262.072,255.879
				z"/>
			<path style="fill:#4C7B49;" d="M264.484,285.793c-0.475-5.956-0.988-12.353-1.518-18.901
				c-8.603,9.581-18.138,18.231-28.056,26.498c-0.888,11.18-1.582,20.01-1.894,23.998c-0.065,0.835,0.057,1.662,0.32,2.443
				C244.771,309.384,255.311,298.144,264.484,285.793z"/>
			<path style="fill:#4C7B49;" d="M241.106,330.745L250,342.614l15.77-21.046c0.899-1.2,1.331-2.686,1.214-4.181
				c-0.226-2.88-0.651-8.293-1.203-15.283C258.414,312.206,250.099,321.815,241.106,330.745z"/>
			<path style="fill:#F49543;" d="M264.484,285.793c-9.173,12.351-19.713,23.592-31.147,34.038c0.208,0.617,0.497,1.208,0.893,1.738
				l6.876,9.177c8.992-8.931,17.307-18.54,24.674-28.64C265.401,297.311,264.962,291.782,264.484,285.793z"/>
			<path style="fill:#F49543;" d="M262.966,266.892c-0.294-3.642-0.594-7.329-0.894-11.013c-7.999,8.437-16.885,15.986-26.026,23.28
				c-0.402,5.017-0.784,9.802-1.135,14.23C244.829,285.124,254.363,276.473,262.966,266.892z"/>
			<path style="fill:#F49543;" d="M250,185.074c-4.247,0-7.69,2.644-7.69,5.905c0,1.777,1.027,3.367,2.645,4.45
				c4.305-1.491,8.403-3.778,12.206-6.59C256.043,186.636,253.262,185.074,250,185.074z"/>
			<path style="fill:#6B8F61;" d="M250,196.885c4.247,0,7.69-2.644,7.69-5.906c0-0.756-0.192-1.476-0.529-2.141
				c-3.803,2.813-7.9,5.099-12.206,6.59C246.306,196.333,248.067,196.885,250,196.885z"/>
			<path style="fill:#FEC3A7;" d="M226.155,253.202c-2.362,0.973-4.798,1.734-6.941,2.31c-0.051,5.826-0.789,11.581-2.016,17.25
				c4.103-0.908,8.834-2.038,13.206-3.285C229.712,263.899,228.277,258.397,226.155,253.202z"/>
			<path style="fill:#ECA99E;" d="M212.666,256.95l-6.352,18.033c0,0,4.737-0.861,10.884-2.221
				c1.227-5.668,1.965-11.424,2.016-17.25C215.497,256.511,212.666,256.95,212.666,256.95z"/>
			<path style="fill:#FECFBC;" d="M247.062,202.63c-3.547,0.574-7.296,5.383-8.307,12.915c-1.677,12.499-1.76,27.46-2.439,29.419
				c-1.27,3.662-5.57,6.347-10.161,8.239c2.122,5.194,3.557,10.697,4.249,16.275c5.461-1.557,10.363-3.293,12.772-5.003
				c4.725-3.353,8.079-9.451,8.079-20.12v-38.14C251.254,203.984,249.263,202.274,247.062,202.63z"/>
			<path style="fill:#EBA07E;" d="M249.559,203.16c-8.362,6.384-8.673,22.231-7.806,33.08c0.171,2.14,2.471,2.768,2.61,0.603
				c0.39-6.079-0.297-11.791,0.417-17.886c0.599-5.12,2.824-9.653,6.474-12.402v-0.341
				C251.254,204.91,250.564,203.799,249.559,203.16z"/>
			<path style="fill:#DCEBDB;" d="M147.971,248.645c-11.993,2.751-17.347,12.415-19.158,18.852
				c-0.844,2.999-0.187,6.251,1.827,8.607c4.816,5.632,16.782,15.017,43.044,15.017c0.686,0,1.353,0,2.011-0.001
				c0.959-14.766,4.079-29.329,9.75-43.177C171.488,247.017,156.432,246.704,147.971,248.645z"/>
			<path style="fill:#F7FDF7;" d="M207.104,290.026l10.565-38.942c0,0-15.305-2.021-32.223-3.142
				c-5.672,13.848-8.791,28.411-9.75,43.177C211.048,291.081,207.104,290.026,207.104,290.026z"/>
			<path style="fill:#85BD81;" d="M194.467,284.384c-2.446,2.381-5.896,2.803-7.706,0.943c-1.81-1.86-1.295-5.297,1.15-7.678
				c2.446-2.381,5.896-2.803,7.706-0.943C197.428,278.566,196.913,282.003,194.467,284.384z"/>
			<path style="fill:#39556B;" d="M233.994,271.107l-0.443,0.153c-1.914,0.661-4.001-0.356-4.661-2.27l-5.59-16.197l7.373-2.545
				l5.59,16.197C236.924,268.359,235.908,270.446,233.994,271.107z"/>
			<path style="fill:#43233B;" d="M233.992,250.137c0.51,1.585-2.195,3.872-6.041,5.109c-3.846,1.237-7.377,0.955-7.887-0.63
				c-0.51-1.585,2.195-3.872,6.041-5.109C229.951,248.27,233.482,248.553,233.992,250.137z"/>
			<path style="fill:#CDD7C8;" d="M345.023,271.256l26.514-0.765c-7.372-37.154-55.985-67.884-59.987-74.934
				c0,0-8.798,1.132-8.798,23.141c0,3.709,0.154,8.57,0.408,14.078C318.286,244.274,332.241,257.135,345.023,271.256z"/>
			<path style="fill:#A5B49D;" d="M303.16,232.776c0.701,15.193,2.171,35.357,3.332,50.194l0.417-10.615l38.113-1.1
				C332.241,257.135,318.286,244.274,303.16,232.776z"/>
			<path style="fill:#FEC3A7;" d="M273.263,251.963c-3.486-1.773-6.438-4.074-7.452-6.999c-0.679-1.959-0.762-16.919-2.439-29.419
				c-1.01-7.532-4.76-12.342-8.307-12.915c-2.201-0.356-4.192,1.354-4.192,3.584v38.14c0,10.67,3.353,16.767,8.079,20.12
				c2.879,2.043,9.318,4.126,16.02,5.893C272.617,264.705,271.923,258.264,273.263,251.963z"/>
			<path style="fill:#EBA07E;" d="M289.462,256.95c0,0-9.185-1.42-16.198-4.988c-1.341,6.302-0.647,12.742,1.708,18.404
				c10.119,2.668,20.842,4.616,20.842,4.616L289.462,256.95z"/>
			<path style="fill:#ECA99E;" d="M252.568,203.16c8.362,6.384,8.674,22.231,7.806,33.08c-0.171,2.14-2.471,2.768-2.61,0.603
				c-0.39-6.079,0.297-11.791-0.417-17.886c-0.599-5.12-2.824-9.653-6.474-12.402v-0.341
				C250.873,204.91,251.563,203.799,252.568,203.16z"/>
			<path style="fill:#DCEBDB;" d="M352.029,248.645c11.993,2.751,17.347,12.415,19.158,18.852c0.844,2.999,0.187,6.251-1.827,8.607
				c-4.816,5.632-16.782,15.017-43.044,15.017c-0.686,0-1.353,0-2.012-0.001c-0.959-14.766-4.079-29.329-9.75-43.177
				C328.512,247.017,343.568,246.704,352.029,248.645z"/>
			<path style="fill:#F7FDF7;" d="M292.896,290.026l-10.565-38.942c0,0,15.306-2.021,32.223-3.142
				c5.671,13.848,8.791,28.411,9.75,43.177C288.952,291.081,292.896,290.026,292.896,290.026z"/>
			<path style="fill:#85BD81;" d="M305.533,284.384c2.446,2.381,5.896,2.803,7.706,0.943c1.81-1.86,1.295-5.297-1.15-7.678
				c-2.446-2.381-5.896-2.803-7.706-0.943C302.572,278.566,303.087,282.003,305.533,284.384z"/>
			<path style="fill:#F7FDF7;" d="M235.851,170.757c0,0-7.285,13.145-1.783,24.542c0.887,1.837,3.257,2.367,4.812,1.046l11.12-9.445
				L235.851,170.757z"/>
			<path style="fill:#F7FDF7;" d="M264.149,170.757c0,0,7.285,13.145,1.783,24.542c-0.887,1.837-3.257,2.367-4.812,1.046
				L250,186.899L264.149,170.757z"/>
			<polygon style="fill:#FEC3A7;" points="250,186.899 262.663,172.701 237.337,172.701 			"/>
			<path style="fill:#FE826F;" d="M290.374,135.477c-0.743,5.927-4.439,10.344-8.254,9.865c-3.815-0.479-6.306-5.671-5.563-11.598
				c0.743-5.927,4.439-10.344,8.254-9.865C288.627,124.357,291.118,129.55,290.374,135.477z"/>
			<path style="fill:#FE826F;" d="M209.364,135.477c0.743,5.927,4.439,10.344,8.254,9.865c3.815-0.479,6.306-5.671,5.563-11.598
				c-0.743-5.927-4.439-10.344-8.254-9.865C211.112,124.357,208.621,129.55,209.364,135.477z"/>
			<path style="fill:#BACCB3;" d="M139.516,401.661c-0.946,2.638-1.672,5.513-2.089,8.55c-1.155,8.413,4.294,11.698,9.987,13.011
				c-1.968-1.809-3.464-4.061-4.625-6.964c-1.109-3.697-1.169-7.519-0.356-11.16C141.377,404.06,140.401,402.918,139.516,401.661z"
				/>
			<path style="fill:#DCEBDB;" d="M155.555,388.598c1.317-0.658,2.661-1.149,4.021-1.529c-2.037-0.521-3.825-0.899-5.17-1.013
				c-5.088-0.433-11.449,6.013-14.889,15.606c0.885,1.257,1.861,2.399,2.916,3.436C143.958,398.261,148.613,392.068,155.555,388.598
				z"/>
			<path style="fill:#AE5231;" d="M220.134,404.31c-0.535-5.018-5.939-6.114-9.408-6.296c-1.038-0.054-1.99-0.479-2.717-1.165
				c-6.223,1.607-21.275,5.026-34.782,4.449c0,0-1.05,10.275-2.925,12.45c-1.294,1.501,19.482,3.823,32.486,5.118
				c2.716-0.363,5.379-0.721,7.934-1.064c0.685-0.092,1.349-0.189,1.999-0.29c0.126-0.267,0.239-0.525,0.329-0.759
				c0.335-0.873,0.899-1.637,1.676-2.157C216.809,413.202,220.721,409.813,220.134,404.31z"/>
			<path style="fill:#F49543;" d="M202.158,398.236c-1.011,0.22-2.094,0.443-3.228,0.665c0.081,6.697-0.631,13.006-2.539,19.307
				c1.356,0.145,2.684,0.283,3.962,0.413C202.549,412.188,202.748,405.017,202.158,398.236z"/>
			<path style="fill:#F49543;" d="M183.145,401.095c-1.094,0.081-2.193,0.141-3.293,0.186c0.034,5.061-0.394,9.904-1.456,14.695
				c1.236,0.19,2.565,0.381,3.964,0.57C183.437,411.522,183.531,406.215,183.145,401.095z"/>
			<path style="fill:#F49543;" d="M192.654,399.997c-1.076,0.165-2.176,0.319-3.296,0.462c0.021,5.773-0.559,11.265-2.008,16.724
				c1.313,0.159,2.646,0.315,3.982,0.468C192.912,411.995,193.1,405.871,192.654,399.997z"/>
			<path style="fill:#723621;" d="M170.302,413.749c1.875-2.175,2.925-12.45,2.925-12.45c13.507,0.577,28.559-2.842,34.782-4.449
				c-0.414-0.391-0.756-0.864-0.996-1.405c-0.219-0.495-0.482-1.037-0.765-1.599c-3.442-1.18-16.783-1.165-22.719-0.889
				c-4.705,0.219-16.17-3.896-23.954-5.888c-1.36,0.38-2.704,0.871-4.021,1.529c-6.941,3.471-11.597,9.663-13.123,16.5
				c7.059,6.941,17.669,9.181,28.585,9.337C170.394,414.193,170.118,413.962,170.302,413.749z"/>
			<path style="fill:#4E2718;" d="M142.432,405.098c-0.813,3.642-0.753,7.463,0.356,11.16c1.161,2.903,2.657,5.156,4.625,6.964
				c3.834,0.884,7.779,0.874,9.89,0.93c4.594,0.121,26.338-2.723,45.484-5.285c-11.154-1.111-28.012-2.977-31.771-4.433
				C160.102,414.278,149.491,412.038,142.432,405.098z"/>
			<path style="fill:#FEC3A7;" d="M221.621,388.01c-5.609,2.537-12.579,5.488-15.372,5.836c0.283,0.561,0.546,1.104,0.765,1.599
				c0.66,1.493,2.083,2.485,3.713,2.57c3.469,0.181,8.873,1.277,9.408,6.296c0.587,5.503-3.325,8.891-5.409,10.286
				c-0.777,0.52-1.34,1.284-1.676,2.157c-0.09,0.234-0.203,0.492-0.329,0.759c4.263-0.662,7.788-1.511,10.7-2.427
				C225.629,405.946,225.607,396.642,221.621,388.01z"/>
			<path style="fill:#EBA07E;" d="M236.12,408.002l-6.488-23.742c0,0-3.581,1.745-8.012,3.749c3.986,8.632,4.008,17.936,1.8,27.076
				C233.406,411.945,236.12,408.002,236.12,408.002z"/>
			<g>
				<g>
					<path style="fill:#39556B;" d="M306.034,389.957c-4.789,4.596-10.554,8.726-17.531,8.073
						c-6.682-0.625-12.813-2.048-19.514-0.096c-9.504,2.77-14.797,9.547-20.267,16.557c24.009-6.423,77.856-21.878,100.244-36.826
						c5.346-3.569,9.766-7.073,13.397-10.478c-5.903-0.245-11.595-1.128-17.605-1.717
						C327.368,363.765,317.211,379.229,306.034,389.957z"/>
					<path style="fill:#3E647F;" d="M373.523,330.423c-0.62,0.409-1.248,0.8-1.901,1.141c-7.988,4.171-17.419,1.967-25.406,5.775
						c-7.861,3.747-11.23,13.282-19.771,16.359c-7.046,2.538-14.698-0.672-21.634,1.655c-4.765,1.599-7.801,6.52-11.25,9.853
						c-3.427,3.313-7.072,6.71-11.361,8.898c-3.26,1.663-6.906,2.663-10.574,2.679c-3.964,0.018-7.916-1.406-11.885-0.823
						c-10.463,1.537-17.179,12.434-27.388,15.278c-1.558,0.434-3.088,0.66-4.593,0.719c4.075,6.898,8.12,15.92,9.059,25.62
						c0,0,4.553-1.12,11.902-3.086c5.47-7.01,10.763-13.787,20.267-16.557c6.701-1.953,12.832-0.53,19.514,0.096
						c6.977,0.653,12.742-3.477,17.531-8.073c11.178-10.728,21.335-26.192,38.724-24.487c6.01,0.589,11.702,1.472,17.605,1.717
						C378.716,351.855,378.885,338.542,373.523,330.423z"/>
				</g>
				<path style="fill:#427EA6;" d="M363.843,322.887c-6.592-2.231-38.817,0.667-69.028,17.17
					c-12.233,6.682-30.16,15.323-40.433,20.906c-20.453,11.116-36.114,17.851-36.114,17.851s4.766,5.141,9.493,13.143
					c1.505-0.06,3.035-0.285,4.593-0.719c10.209-2.844,16.925-13.741,27.388-15.278c3.968-0.583,7.92,0.841,11.885,0.823
					c3.668-0.016,7.314-1.016,10.574-2.679c4.289-2.188,7.934-5.585,11.361-8.898c3.449-3.334,6.485-8.254,11.25-9.853
					c6.936-2.327,14.588,0.883,21.634-1.655c8.541-3.077,11.91-12.611,19.771-16.359c7.987-3.807,17.418-1.604,25.406-5.775
					c0.653-0.341,1.282-0.732,1.901-1.141C371.096,326.75,367.542,324.139,363.843,322.887z"/>
			</g>
			<g>
				<path style="fill:#BF5136;" d="M281.441,143.291c0.012-0.107,0.024-0.229,0.036-0.338c-1.682-0.628-3.92-0.111-5.361,0.472
					c-1.506,0.609-2.972,0.733-4.443-0.059c-1.22-0.657-2.004-1.751-3.385-2.151c-2.992-0.865-5.672,0.844-8.667-0.207
					c-2.415-0.847-4.293-4.134-6.925-4.184c-1.412-0.027-2.669,0.593-4.115,0.402c-1.409-0.187-2.759-0.386-4.036,0.403
					c-1.693,1.047-2.996,2.705-4.92,3.38c-2.996,1.051-5.676-0.658-8.667,0.207c-1.381,0.399-2.165,1.494-3.385,2.151
					c-1.471,0.792-2.937,0.668-4.443,0.059c-1.234-0.499-3.053-0.951-4.607-0.677c0.021,0.184,0.042,0.357,0.063,0.544
					c1.426,12.762,5.016,21.057,10.437,26.145c0.924,0.063,1.848,0.076,2.771-0.108c3.911-0.779,2.883-4.571,5.541-6.618
					c2.902-2.235,6.536,2.943,7.783-1.256c0.553-1.86,0.405-4.228,1.664-5.789c1.213-1.505,3.427-2.625,5.356-2.493
					c2.45,0.167,1.822,2.066,2.073,3.939c0.482,3.596,5.653,0.096,6.032,4.311c0.125,1.394-0.597,3.68,0.972,4.504
					c1.518,0.797,3.716-0.389,5.3,0.119c1.678,0.539,1.898,2.455,2.904,3.672c0.183,0.221,0.382,0.416,0.582,0.608
					C275.983,165.337,279.93,156.825,281.441,143.291z"/>
				<path style="fill:#D25A3C;" d="M266.516,166.045c-1.584-0.508-3.783,0.678-5.3-0.119c-1.569-0.824-0.847-3.111-0.972-4.504
					c-0.378-4.215-5.549-0.715-6.032-4.311c-0.251-1.874,0.377-3.773-2.073-3.939c-1.929-0.131-4.143,0.989-5.356,2.493
					c-1.259,1.562-1.112,3.93-1.664,5.789c-1.247,4.198-4.881-0.979-7.783,1.256c-2.658,2.046-1.63,5.838-5.541,6.618
					c-0.923,0.184-1.847,0.171-2.771,0.108c5.301,4.975,12.35,6.884,20.847,6.884h0.288c7.971,0,14.669-1.68,19.843-5.995
					c-0.2-0.192-0.399-0.387-0.582-0.608C268.414,168.5,268.194,166.583,266.516,166.045z"/>
			</g>
			<path style="fill:#FEC3A7;" d="M283.532,109.98c-0.432-5.561-4.354-9.915-9.329-12.218c-3.138-1.452-6.302-2.158-9.663-2.87
				c-3.893-0.825-7.5-0.486-11.422,0.004c-9.885,1.233-19.61,3.107-28.901,6.83c-3.817,1.529-7.386,4.304-8.031,8.524
				c-0.817,5.341-0.878,11.353,0.666,17.221c0.38,5.59,1.046,9.797,1.671,15.276c1.554-0.274,3.373,0.178,4.607,0.677
				c1.506,0.609,2.972,0.733,4.443-0.059c1.22-0.657,2.004-1.751,3.385-2.151c2.992-0.865,5.671,0.844,8.667-0.207
				c1.923-0.675,3.227-2.333,4.92-3.38c1.276-0.789,2.627-0.59,4.036-0.403c1.446,0.192,2.703-0.428,4.115-0.402
				c2.632,0.05,4.51,3.337,6.925,4.184c2.996,1.051,5.676-0.658,8.667,0.207c1.381,0.399,2.165,1.494,3.385,2.151
				c1.471,0.792,2.937,0.667,4.443,0.059c1.441-0.583,3.679-1.099,5.361-0.472c0.561-5.121,1.131-12.514,1.502-17.556
				c0.648-3.086,0.34-3.853,0.459-7.022C283.543,115.61,283.747,112.746,283.532,109.98z"/>
			<g>
				<path style="fill:#D25A3C;" d="M239.492,90.325c1.056,0.776,1.424,1.742,2.712,2.317c1.666,0.745,3.107,0.583,4.811,0.13
					c3.5-0.93,8.714-4.579,12.36-2.34c1.531,0.94,1.764,2.536,3.797,2.92c3.741,0.706,6.854-2.034,10.444-1.62
					c3.249,0.375,5.747,1.665,8.163,3.854c1.977,1.791,3.639,3.783,5.034,5.932c-0.402-3.536-1.205-6.858-3.486-9.883
					c-3.721-4.933-10.155-6.092-15.982-6.111c1.074-2.97,3-10.012-1.737-9.441c-4.627,0.558-8.63,5.038-11.676,8.258
					c1.117-1.763,4.563-10.714-0.227-9.31c-4.268,1.251-7.865,4.76-10.556,8.257c-6.849,0.03-19.963,2.66-25.148,6.401
					c-3.534,2.549-5.606,7.014-6.638,11.978c5.319-3.454,10.126-7.316,16.252-9.455C230.711,91.131,236.401,88.055,239.492,90.325z"
					/>
				<path style="fill:#BF5136;" d="M286.814,101.518c-1.395-2.15-3.057-4.141-5.034-5.932c-2.416-2.189-4.914-3.479-8.163-3.854
					c-3.59-0.414-6.703,2.327-10.444,1.62c-2.033-0.384-2.266-1.979-3.797-2.92c-3.646-2.239-8.861,1.411-12.36,2.34
					c-1.705,0.453-3.145,0.615-4.811-0.13c-1.288-0.576-1.656-1.542-2.712-2.317c-3.091-2.27-8.78,0.806-11.877,1.888
					c-6.126,2.139-10.932,6.001-16.252,9.455c-1.329,6.392-0.932,13.61,0.294,18.629c0.278,1.139,3.251,7.419,5.195,7.175
					c-0.601-3.751-0.559-7.571,0.505-11.286c0.736-2.569,2.022-5.849,4.22-7.772c0.638-1.066,1.483-1.947,2.668-2.395
					c1.607-0.608,2.01,0.362,3.438,0.804c1.905,0.589,4.622-0.83,6.152-1.816c1.255-0.809,3.154-3.327,4.856-2.952
					c1.71,0.377,0.96,2.583,1.419,3.894c1.94,5.542,10.921-2.769,12.933-4.632c0.879-0.814,3.337-3.667,4.521-2.137
					c0.47,0.608,0.128,2.181,0.287,2.943c0.198,0.952,0.707,2.155,1.577,2.69c2.065,1.271,4.286-0.854,5.727-2.099
					c1.814-1.568,3.257-2.744,3.509,0.328c0.168,2.049,0.362,4.739,2.861,5.121c2.095,0.32,4.054-1.284,5.855,0.137
					c3.839,3.029,5.237,10.383,5.597,17.099c2.413-1.641,2.892-5.295,3.387-7.894c0.754-3.96,1.041-8.234,0.764-12.258
					C287.044,103.979,286.952,102.736,286.814,101.518z"/>
			</g>
			<path style="fill:#FE826F;" d="M255.563,135.111c0,5.102-0.84,9.238-5.563,9.238c-4.934,0-5.564-4.136-5.564-9.238
				c0-5.102,3.74-9.238,5.564-9.238C251.785,125.873,255.563,130.009,255.563,135.111z"/>
			<path style="fill:#723621;" d="M259.262,148.918c-3.16,0.888-5.922,1.864-9.29,1.937c-3.331,0.072-6.249-0.593-9.296-1.807
				c-1.617-0.644-2.197,1.627-1.095,2.598c5.772,5.087,14.869,4.947,20.814-0.039C261.626,150.574,260.943,148.445,259.262,148.918z
				"/>
			<path style="fill:#A85B39;" d="M259.764,128.149c-0.271,1.108,0.924,2.084,1.941,1.492c2.003-1.164,3.975-2.607,6.443-2.317
				c2.202,0.259,3.299,2.008,4.981,3.14c1.029,0.693,2.901-0.224,2.639-1.514C274.089,120.7,261.416,121.39,259.764,128.149z"/>
			<path style="fill:#A85B39;" d="M239.482,128.149c0.271,1.108-0.924,2.084-1.941,1.492c-2.003-1.164-3.975-2.607-6.443-2.317
				c-2.202,0.259-3.299,2.008-4.981,3.14c-1.029,0.693-2.901-0.224-2.639-1.514C225.157,120.7,237.83,121.39,239.482,128.149z"/>
			<path style="fill:#BF5136;" d="M273.557,113.645c-1.335-2.034-3.956-2.393-6.233-2.327c-2.38,0.069-5.246,0.069-7.323,1.348
				c-2.145,1.32-1.413,4.039,0.641,4.903c2.025,0.852,4.547,0.16,6.683,0.09c2.045-0.067,4.307,0.844,5.842-0.982
				C273.857,115.855,274.198,114.622,273.557,113.645z"/>
			<path style="fill:#BF5136;" d="M225.689,113.645c1.335-2.034,3.956-2.393,6.233-2.327c2.38,0.069,5.246,0.069,7.323,1.348
				c2.145,1.32,1.413,4.039-0.641,4.903c-2.025,0.852-4.547,0.16-6.683,0.09c-2.045-0.067-4.307,0.844-5.842-0.982
				C225.39,115.855,225.048,114.622,225.689,113.645z"/>
		</g>
	</g>
</g>
</svg>
